<svg version="1.2" xmlns="http://www.w3.org/2000/svg" viewBox="0 0 1044 360" width="1044" height="360">
	<title>campoder logo vector-ai</title>
	<style>
		.s0 { fill: #f7dd6e } 
		.s1 { fill: #2d9d4e } 
		.s2 { fill: none;stroke: #289942;stroke-width: 12 } 
		.s3 { fill: none;stroke: #289942;stroke-width: 10 } 
		.s4 { fill: #2c9d53 } 
		.s5 { fill: #151313 } 
		.s6 { fill: #161217 } 
		.s7 { fill: #2d9657 } 
	</style>
	<g id="Capa 2">
		<path id="&lt;Path&gt;" class="s0" d="m323.8 319.9q-52.8-104.6 8.6-195.8c61.4-91.2 136-110.4 190.9-111.4c54.9-1 143.2 25.9 185.4 94.1c41.9 67.6 49.9 152.6 3.9 233.3h-266l-1.9-26.9l-31.7 26.9l-7.6-26l-22.1 19.2l-8.7 6.8l-0.9-28.8l-28.8 28.8h-7.7l2.9-23.1z" />
	</g>
	<g id="Capa 5">
	</g>
	<g id="Capa 3">
		<path id="&lt;Path&gt;" class="s1" d="m474.1 271.2h-5.7l3-25.1q8.8 1.9 11-13.2q2.2-15.1 7.1-71.9q0.8-9.8-4.9-10.5q0 0.3 3.2-28.5h86.4q27.5 2.9 30.6 26.7q0.1 10.7 0 13.6l-105.5-10l-7.5 120.6z" />
		<path id="&lt;Path&gt;" class="s2" d="m35.5 344.1l28.3-27.7c0.1-0.1 0.3-0.1 0.3 0.1l-1.9 30.6c0 0.1 0 0.1 0.1 0.1l36.3-31.1c0 0 0 0 0 0.1v28.5c0 0.1 0.1 0.1 0.1 0.1l31.5-28.7c0.1 0 0.1 0 0.1 0.1v28.6c0 0 0.1 0 0.1 0l35.8-28.7c0.1 0 0.1 0 0.1 0.1v28.5c0 0.1 0.1 0.1 0.1 0.1l34.4-28.7c0 0 0.1 0 0.1 0.1v28.5c0 0.1 0 0.1 0.1 0.1l32.9-28.7c0 0 0.1 0 0.1 0.1v28.5c0 0.1 0.1 0.1 0.1 0.1l34.4-28.7c0 0 0.1 0 0.1 0.1v28.6c0 0 0 0 0 0l35.9-28.7c0 0 0.1 0 0.1 0.1v28.5c0 0.1 0 0.1 0 0.1l33.5-28.7c0 0 0.1 0 0 0.1l-3.3 30.9c0 0.1 0.1 0.1 0.1 0.1l38.7-31.1c0 0 0.1 0 0.1 0.1v28.5c0 0.1 0 0.1 0.1 0.1l31.5-28.7c0 0 0.1 0 0.1 0.1v28.5c0 0.1 0 0.1 0 0.1l34.4-28.7c0.1 0 0.1 0 0.1 0.1v28.6q0 0.1 0.1 0.1h387.3" />
		<path id="&lt;Path&gt;" class="s3" d="m34.8 343.5c0.4-0.5 1.1-0.6 1.5-0.3c0.4 0.4 0.4 1.1 0 1.5c-0.5 0.5-1.1 0.7-1.5 0.3c-0.4-0.3-0.4-1 0-1.5z" />
		<path id="&lt;Path&gt;" class="s3" d="m826.7 345.2c-0.3-0.5-0.3-1.1 0-1.3c0.3-0.1 0.8 0.2 1.1 0.7c0.3 0.5 0.3 1.1 0 1.2c-0.3 0.2-0.8-0.1-1.1-0.6z" />
		<path id="&lt;Path&gt;" class="s4" d="m125.3 157.7q0.3-4.4-7.6-6.2q-7.9-1.8-10.1 7.6q-8.6 59.4-9.3 68c-0.7 8.7-1.5 15.2 7.5 15.5q9 0.4 9-8.3l2.9-24.8l47.5-0.4q-1.8 18-5.4 40.7q-3.6 22.7-42.1 21.3q-33.1-0.8-34.2 0q-33.5-1.8-36-25.2q1.8-37.1 6.1-63c4.4-26 5.1-28.5 11.2-40.7c6.1-12.3 28.7-19 29.5-19.1c1.6-0.1-1.7-1.6 40.7-1.4q26.6 0 41.8 13.3l-6.5 41.4h-48.3z" />
		<path id="&lt;Path&gt;" class="s1" d="m413.8 242.4l3.5-48.5c0-0.7-0.2-1.2-0.7-1.6c-2.1-1.8-8.5-6.2-14.8 0.1c-0.3 0.3-0.5 0.8-0.5 1.2c-0.3 5.6-3.1 42.9-3.6 48.9c0 0.6 0.2 1.1 0.5 1.5l1.5 1.6c0.4 0.4 0.6 0.9 0.5 1.5l-2.3 22.4c-0.1 0.9-1 1.7-1.9 1.7h-43.1c-1.1 0-2-0.9-1.9-2l1.1-21.8q0-0.5 0.2-0.9l1-1.6q0.2-0.4 0.3-0.8l3.8-49.1c0.1-2-1-4-2.9-4.8c-2.9-1.2-7.3-1.9-11.5 2c-0.5 0.5-5 45.3-5.5 50.2q-0.1 0.5 0.1 0.9c0.4 0.9 1.3 2.8 2.5 3.7c0.6 0.4 1 1 0.9 1.7c-0.2 4-1.3 16.2-1.7 20.7c-0.1 1-0.9 1.8-1.9 1.8h-50.4c-1.1 0-2-1-1.9-2.1l2.1-21.3c0-0.8 0.5-1.4 1.3-1.6c2-0.7 5.8-2.7 6.7-8.1c-0.2-0.7 4-40.6 4.5-45.4q0.1-0.6-0.2-1.1c-0.4-0.7-1.3-2.2-3.4-3.4c-0.5-0.4-0.9-1.1-0.8-1.7l1.5-22.5c0-1 0.9-1.8 1.9-1.8h46.9c1.1 0 1.9 0.9 1.9 1.9c0 1.5 1.7 2.5 2.9 1.7c3.8-2.4 10.7-6 17.5-6.2q10.1-0.3 17.8 0q8.1-0.2 15.1 7.9c0.6 0.7 1.6 1 2.5 0.5c3.2-1.9 11.1-7 21.6-8.5q0.3 0 0.6 0c1.8 0.3 16.1 0.1 17.2 0.1q0.1 0 0.2 0c1.2 0.1 14.1 1.4 18.5 14.7q0.1 0.3 0.1 0.6v20.5q0 0.2 0 0.4c-0.7 2.9-8.6 39-3.1 50.4q0.2 0.5 0.2 1l-2.4 22.3c-0.1 0.9-0.9 1.7-1.9 1.7h-42.7c-1.1 0-1.9-0.9-1.9-2l0.2-21.6c0-0.9 0.6-1.7 1.4-1.9c1.1-0.2 2.3-1 2.5-3.3z" />
		<path id="&lt;Path&gt;" class="s5" d="m474.1 271.2v-6.6q9-5.1 10.1-14.4q1.1-9.4 7.6-77.1q0.3-1.4-3.6-2.8q0.3 0 3.6-28.8h86l-24.1 33.1l-12.1-1.6l-5.2 44.5l-6.5 41.7l3.6 4.3l-1.4 26.3h-60.5z" />
		<path id="&lt;Path&gt;" class="s6" d="m577.8 141.5q33.1 2.8 29.9 37q-1.5 28.5-7.2 46.1q-11.5 21.3-34.6 21.6q-1.1 0.4-34.2 1.5l4.7-30.2q15.5 2.8 18-4.8q2.5-7.5 23.4-71.2z" />
		<path id="&lt;Path&gt;" class="s6" d="m536.4 217.5q12.6-1.5 18-4.8l-0.7-38.1l24.1-33.1l22.7 83.1z" />
		<path id="&lt;Path&gt;" class="s1" d="m538.6 199q16.9 2.2 15.1-24.4q5.7-0.4 4.7 12.2q-1.1 12.6-4 25.9q-5.7 7.4-18 4.8z" />
		<path id="&lt;Path&gt;" class="s1" d="m646.6 247.7q12.9 1.4 14.7-14.8q1.8-16.2 3.3-29.2q6.1-4.4 4.7 8.9q-1.5 13.3-5.5 46.6q-3.3 9.2-12 8.1q-8.6-1-5.2-10.6z" />
		<path id="&lt;Path&gt;" class="s1" d="m602.6 255.2q-2.1-5-2.1-3.6q4.8-49.4 7.4-66.6q2.6-17.1 28.9-24.1q22-0.4 42.9 0c15 0.3 27 8.2 28.4 12.8c0.9 2.7 2.7 7.6 2.9 9.3c0.7 5.4 0 12.1 0 11.6q-5.4-10.1-20-12.9q-23.9-2.4-50.2-1q-26.3 1.4-27.6 23l-7.2 52.8q-1.2 3.8-3.4-1.3z" />
		<path id="&lt;Path&gt;" class="s5" d="m626 289.8l20.2-26.7q11.9 8.7 17.6-3.9l5-50.1v-29l21.7 0.6q23.4 1.7 21.9 23q-1.4 21.3-5.4 53.8q-5 20-12.2 24.7c-7.2 4.7-10.4 7.6-25.5 9q-13.7 1.1-43.3-1.4z" />
		<path id="&lt;Path&gt;" class="s5" d="m626 289.8c-14.8-1-19.7-12.4-20.9-15.9q-0.3-0.9-0.2-1.9l0.7-22.2q0-0.3 0.1-0.6l5.8-42c3.1-22.3 22.1-27.2 25.9-28q0.6-0.1 1.3-0.1l36.4 1.1c3.4 0.1 5.8 3.3 5.1 6.6c-2.2 9.4-6.6 25.1-10.9 19.5c-4.2-5.5-10.3-3.5-13.7-1.7c-1.6 0.9-2.7 2.4-2.9 4.2l-6.5 54.3q-2.6 27.9-20.2 26.7z" />
		<path id="&lt;Path&gt;" class="s5" d="m772.1 180.4c5.2 1.7 8.4 3.9 10.3 5.6c1.3 1.2 2.1 2.9 2.1 4.7c0.3 7.7 0.7 31-4.4 23.5c-4-5.9-9.1-4.5-12.2-2.9c-1.6 0.9-2.7 2.5-3.2 4.3c-1.7 7.2-5.1 28.6-5.1 42.3c0 3.4 4 3.5 7.2 3.6c7.2 0.4 8.1 0.3 8.6 3.1c1.2 6-0.9 18.3-6.1 21.9q-7.5 5.4-14 5h-24.4q-0.8 0-1.6-0.2c-21.7-5.2-14.3-32.6-8.9-70.6c4.8-34.4 23.7-39.4 27.7-40.5c8.1-2.3 10.3-1.7 10.7-1.7c4.5-0.7 12.7 1.7 13.3 1.9z" />
		<path id="&lt;Path&gt;" class="s1" d="" />
		<path id="&lt;Path&gt;" class="s5" d="m770.9 264.7c0.1-0.9 0.5-1.9 1.2-2.4c0.9-0.6 2.3-3.6 3.3-14.6q1.8-18.4 4.4-38.4l4.9-22.8l1.5-15.9q0-3.6-3.2-4.7q0.4 0 3.2-24.4h45.8l-14.8 118.4q1.1 6.1 3.2 7.5q-0.3-0.3-2.5 22.4h-48.6z" />
		<path id="&lt;Path&gt;" class="s5" d="m870.5 291.5c-53.3 0.6-36.4-33.4-31.7-79.5q4.7-46.1 78.5-31.9q-18.4 24.4-25.2 23.3q-6.9-1.1-9 5.9l-2.8 10.3q-9.1 72.3-9.8 71.9z" />
		<path id="&lt;Path&gt;" class="s5" d="m874.9 258.6q-0.5 8.1 8.2 7.8q8.6-0.4 7.9-16.6h43.6l-3.3 25.9q-8.3 17.5-60.8 15.8z" />
		<path id="&lt;Path&gt;" class="s5" d="m879.5 219.6h19.8q1.1-14.4-6.1-16q-11.4-2.5 24.1-23.5q25.9 5.2 23.4 29.2q-2.5 24-4 34h-60z" />
		<path id="&lt;Path&gt;" class="s5" d="m1018.8 217.8q-25.2-3.6-27 18c-1.8 21.6-1.8 29.5 4.3 30.6q0.4 0.3-2.5 23.4h-54.7l2-24.5q6.6 1.1 8.8-14q2.1-15.2 5-39.6l-3.2-4.7l2.5-25.2h46.1l0.7 4.7q7.6-8.6 15.5-8.5q7.9 0.2 7.9 0.2l-3.6 39.2z" />
		<path id="&lt;Path&gt;" class="s7" d="m895.1 313.7h5.4v12.1h-7.3v-4.2h0.8q-0.5-3.1-9.8-1.9c-2.2 1.4-6.3 7.2 8.1 10.4c0.5 0.2 11.9 6.2 2.5 16.7c-3.7 3.1-11.2 5.4-17.6 0q-0.1-0.1 0 3.2h-5.2v-11.5h6.3v3.8q2.3 3.5 6.5 3.2c4.2-0.4 5.4-1.1 6.2-5.2q0.8-4.1-9.7-6.4q-6.4-2.4-6.3-8.2c0.2-5.9 1.8-10.7 8.1-11.4c6.2-0.8 9.2 0.4 11 1.6q1.8 1.2 1 0.6z" />
		<path id="&lt;Path&gt;" class="s7" d="m902.5 343.4h6.5v6.6h-6.5z" />
		<path id="&lt;Path&gt;" class="s7" d="m914.3 350v-4.1h5.1l1.8-27.8h-3l-0.5-4.4h15.8l2.2 4.2l-7.7-0.3l-0.5 12l-1.6 16.3l4.3 0.1v4z" />
		<path id="&lt;Path&gt;" class="s7" d="m927.5 329.6h8.2q4.4-0.2 4.5-5.3c0.2-5.2-3-6.4-4.5-6.4q-1.4-0.1-2.2-4.2h7.7q0.7 0 1.4 0.3c1.4 0.7 4.2 2.8 4.5 7.8c0.3 6.7-2.6 8.8-6.3 10.6q0.1 0 2.2 3.6q1 2.8 0.8 10q0-0.1 3.4 0.1l0.1 3.9h-9q-0.1-15.3-2.6-15l-8.7-0.2z" />
		<path id="&lt;Path&gt;" class="s7" d="m953.4 343.4h6.3v6.6h-6.3z" />
		<path id="&lt;Path&gt;" class="s7" d="m964.7 350v-5.2l4.1-0.1l2.7-26.8h-4.2l0.2-5.1h17.9l-0.3 5.6l-4.9-0.1l-2.9 26.6l9.5 0.1v-7.5h5.5v12.5z" />
		<path id="&lt;Path&gt;" class="s7" d="m998 343.4h6.1v6.6h-6.1z" />
		<path id="&lt;Path&gt;" class="s4" d="m232.6 225.8v-22.2c0-0.9 0.6-1.7 1.5-1.9l2.7-0.5c0.9-0.2 1.5-1 1.5-1.9v-9q0-0.5-0.2-0.9c-1-1.7-5-7-12.8-2.6c-0.4 0.2-0.7 0.7-0.9 1.2c-1.4 5.6-2.2 8.5-2.7 9.9c-0.2 0.8-0.9 1.3-1.8 1.3l-35.2 0.2c-1.1 0-2-0.9-1.9-2l1.4-23.7c0.1-0.7 0.5-1.4 1.1-1.6c8.8-4.1 71-31.2 95.4 8.7c0.2 0.4 0.3 0.8 0.2 1.3q-1 6.6-4.9 59.3q-0.4 4.7 2.6 5.6c0.8 0.3 1.2 1.1 1.1 2c-0.4 4.5-1.8 16.1-2.3 20.5c-0.1 1-0.9 1.7-1.9 1.7l-42.9-0.1c-1.1 0-1.9-0.9-1.9-2l0.3-6.1l0.9-22.8z" />
		<path id="&lt;Path&gt;" class="s4" d="m241.7 200.4l-2.2 20.1l-6.9 5.3c-16.6 2.9-19.7 11.6-18.3 14.9q6.4 9.3 18.7-5.3q1.7 7.9 0 17.1c-1.6 9.1-2.4 18.6-34.8 20.8q-32.4 2.3-28.5-31.6q4.5-34.1 72-41.3z" />
	</g>
</svg>